<?xml version="1.0" standalone="no"?>
<!DOCTYPE svg PUBLIC "-//W3C//DTD SVG 20010904//EN"
 "http://www.w3.org/TR/2001/REC-SVG-20010904/DTD/svg10.dtd">
<svg version="1.0" xmlns="http://www.w3.org/2000/svg"
 width="491.000000pt" height="491.000000pt" viewBox="0 0 491.000000 491.000000"
 preserveAspectRatio="xMidYMid meet">
<metadata>
Created by potrace 1.11, written by Peter Selinger 2001-2013
</metadata>
<g transform="translate(0.000000,491.000000) scale(0.100000,-0.100000)"
fill="#000000" stroke="none">
<path d="M2298 4866 c-21 -8 -62 -13 -95 -12 -38 2 -77 -3 -113 -16 -30 -10
-88 -20 -127 -22 -59 -2 -80 -8 -113 -30 -29 -19 -52 -26 -87 -26 -37 0 -61
-8 -112 -39 -36 -22 -82 -42 -101 -45 -62 -9 -84 -18 -122 -52 -21 -19 -61
-40 -94 -50 -32 -9 -72 -30 -93 -49 -20 -18 -65 -47 -100 -65 -35 -17 -84 -52
-109 -77 -25 -24 -62 -53 -83 -63 -20 -11 -61 -44 -90 -75 -30 -31 -70 -65
-90 -77 -19 -11 -50 -42 -67 -68 -18 -27 -52 -66 -77 -87 -24 -20 -60 -62 -79
-92 -19 -31 -51 -72 -70 -91 -20 -19 -48 -59 -62 -89 -14 -30 -43 -75 -65
-100 -27 -30 -45 -65 -56 -103 -10 -34 -30 -74 -50 -97 -23 -28 -37 -59 -49
-107 -8 -38 -24 -78 -33 -89 -21 -22 -36 -68 -45 -133 -4 -24 -17 -65 -30 -90
-15 -32 -23 -66 -24 -105 0 -32 -10 -83 -22 -114 -15 -41 -20 -75 -18 -122 1
-36 -3 -88 -10 -116 -7 -27 -9 -70 -6 -95 9 -65 9 -110 2 -155 -4 -25 -1 -54
9 -80 8 -22 18 -81 23 -130 4 -53 15 -105 25 -125 10 -19 19 -55 20 -80 1 -25
3 -52 4 -61 0 -8 14 -35 30 -60 17 -27 33 -69 40 -108 7 -46 19 -76 41 -102
16 -20 34 -58 40 -84 13 -59 34 -100 60 -118 18 -13 70 -110 70 -133 0 -6 20
-32 45 -58 25 -27 53 -67 64 -90 10 -23 40 -62 66 -87 26 -24 65 -70 87 -102
21 -31 42 -57 46 -57 12 0 97 -82 126 -121 14 -20 46 -46 70 -58 24 -13 60
-43 81 -68 25 -30 58 -54 99 -73 35 -16 70 -40 83 -58 15 -20 44 -38 90 -56
37 -14 86 -41 108 -61 43 -37 71 -50 125 -59 19 -3 49 -18 65 -32 40 -35 79
-51 143 -58 29 -3 60 -13 70 -22 26 -26 75 -43 140 -48 33 -3 77 -13 99 -24
27 -14 60 -20 117 -20 51 -1 91 -7 114 -18 28 -13 50 -15 106 -10 87 9 80 9
142 -5 42 -10 60 -10 100 2 27 7 63 13 79 12 88 -6 125 -5 137 4 20 16 68 26
138 28 43 1 79 9 106 23 23 12 57 24 75 27 19 3 46 8 61 11 15 3 29 4 30 3 2
-2 23 10 48 27 27 19 64 34 94 37 45 7 126 43 126 57 0 4 19 15 43 24 96 40
113 49 148 76 20 16 65 43 100 59 35 16 78 44 94 61 17 18 55 47 85 65 30 18
78 55 107 83 28 28 64 59 80 69 15 10 37 29 48 43 11 13 50 56 86 95 96 101
204 236 250 313 23 37 52 78 64 92 13 14 33 50 45 81 11 31 35 76 52 100 17
23 37 68 45 98 8 31 27 76 43 101 16 25 31 67 35 95 4 28 20 77 36 110 19 41
30 82 34 128 2 37 12 84 22 104 12 26 18 65 19 132 0 53 6 110 11 126 6 17 9
53 6 80 -4 60 -5 146 -2 200 3 42 -4 86 -17 107 -4 7 -8 51 -9 98 0 73 -4 93
-28 138 -19 36 -29 73 -32 113 -3 45 -11 71 -34 107 -18 28 -34 70 -39 104 -5
34 -19 70 -34 90 -27 36 -50 83 -68 141 -6 21 -22 50 -34 65 -12 15 -40 56
-61 92 -57 96 -158 236 -223 309 -31 35 -67 77 -79 93 -12 16 -36 41 -55 54
-18 14 -55 48 -83 78 -27 29 -70 66 -94 82 -25 16 -67 50 -95 75 -28 25 -73
57 -100 70 -27 13 -64 38 -82 54 -33 32 -49 40 -124 71 -25 10 -59 31 -76 46
-19 18 -54 35 -90 44 -74 19 -114 34 -114 44 0 13 -63 38 -109 44 -24 2 -72
18 -105 35 -41 21 -77 31 -111 32 -27 1 -78 12 -112 25 -47 17 -78 22 -125 19
-46 -2 -75 2 -103 15 -27 13 -55 17 -94 14 -69 -6 -99 -5 -176 1 -38 3 -73 0
-97 -9z"/>
</g>
</svg>
